# xmcd CD database file
#
# Track frame offsets:
#	150
#	2818
#	14476
#	15378
#	25733
#	27179
#	38241
#	39885
#	57278
#	58966
#	74346
#	76561
#	92167
#	94236
#	105407
#	107085
#	119308
#	121060
#	141542
#	143402
#	157921
#	160199
#
# Disc length: 2265 seconds
#
# Revision: 0
# Processed by: cddbd v1.5.2PL0 Copyright (c) Steve Scherf et al.
# Submitted via: CDex 1.70beta2
#
DISCID=0e08d716
DTITLE=Dusty Nall - Acres of Memories
DYEAR=1900
DGENRE=Country
TTITLE0=Intro - Believe
TTITLE1=Believe
TTITLE2=Intro - Reason
TTITLE3=Reason
TTITLE4=Intro - Acres of Memories
TTITLE5=Acres of Memories
TTITLE6=Intro - Her Feets Too Big
TTITLE7=Her Feets Too Big
TTITLE8=Intro - Don't Knock It
TTITLE9=Don't Knock It
TTITLE10=Intro - Whole Lotta Country
TTITLE11=Whole Lotta Country
TTITLE12=Intro - Sweet Memories of yesterday
TTITLE13=Sweet Memories of Yesterday
TTITLE14=Intro - It's Your Day To Shine
TTITLE15=It's Your Day To Shine
TTITLE16=Intro - Tribute to Conway Twitty
TTITLE17=Tribute to Conway Twitty
TTITLE18=Intro - Keep Your Flowers
TTITLE19=Keep Your Flowers
TTITLE20=Intro - The Answer
TTITLE21=The Answer
EXTD=
EXTT0=
EXTT1=
EXTT2=
EXTT3=
EXTT4=
EXTT5=
EXTT6=
EXTT7=
EXTT8=
EXTT9=
EXTT10=
EXTT11=
EXTT12=
EXTT13=
EXTT14=
EXTT15=
EXTT16=
EXTT17=
EXTT18=
EXTT19=
EXTT20=
EXTT21=
PLAYORDER=
